Coordinates
version=1
nRows=17
nColumns=40
inDegrees=yes

Units are S.I. units (second, meters, Newtons, ...)
If the header above contains a line with 'inDegrees', this indicates whether rotational values are in degrees (yes) or radians (no).

endheader
time	pelvis_tilt	pelvis_list	pelvis_rotation	pelvis_tx	pelvis_ty	pelvis_tz	hip_flexion_r	hip_adduction_r	hip_rotation_r	knee_angle_r	knee_angle_r_beta	ankle_angle_r	subtalar_angle_r	mtp_angle_r	hip_flexion_l	hip_adduction_l	hip_rotation_l	knee_angle_l	knee_angle_l_beta	ankle_angle_l	subtalar_angle_l	mtp_angle_l	lumbar_extension	lumbar_bending	lumbar_rotation	arm_flex_r	arm_add_r	arm_rot_r	elbow_flex_r	pro_sup_r	wrist_flex_r	wrist_dev_r	arm_flex_l	arm_add_l	arm_rot_l	elbow_flex_l	pro_sup_l	wrist_flex_l	wrist_dev_l
      9.85000000	    -36.57082886	    -14.31641867	    -87.91103358	      0.42886950	      1.00747694	     -0.48049342	    -29.97561907	     29.98195451	    -39.96077994	      7.43726733	      0.12980480	    -20.87499820	      0.00000000	      0.00000000	     12.42938018	     -8.42461489	     39.95703578	     45.87871111	      0.80073457	    -21.25096974	      0.00000000	      0.00000000	     89.98824966	     89.98311146	     89.98825348	     35.12908285	     41.88091737	     87.94153524	     18.59235102	      2.36411128	      0.00000000	      0.00000000	    -59.65624107	      2.53483503	    -71.10650553	     87.64457338	     89.30039134	      0.00000000	      0.00000000
      9.85500000	    -36.82505578	    -14.44071255	    -87.92574713	      0.42963885	      1.00919424	     -0.48016008	    -29.97525032	     29.98290882	    -39.96110572	      7.76594119	      0.13554124	    -22.14074487	      0.00000000	      0.00000000	     12.11829270	     -8.84473840	     39.95703128	     45.40515740	      0.79246949	    -21.62198969	      0.00000000	      0.00000000	     89.98820165	     89.98359667	     89.98820548	     35.32029566	     41.56727309	     88.17430271	     18.89459834	      2.40429645	      0.00000000	      0.00000000	    -59.94467814	      2.56757874	    -70.78542717	     87.90396818	     89.29534006	      0.00000000	      0.00000000
      9.86000000	    -37.09314970	    -14.57121827	    -87.94893591	      0.43026132	      1.01063103	     -0.47976740	    -29.97457323	     29.98372808	    -39.96154203	      8.23768674	      0.14377476	    -22.61078057	      0.00000000	      0.00000000	     11.84584178	     -9.25490153	     39.95712680	     45.07355995	      0.78668203	    -21.74453131	      0.00000000	      0.00000000	     89.98809894	     89.98416047	     89.98810285	     35.43463252	     41.40401724	     88.21187170	     18.91650506	      2.41622897	      0.00000000	      0.00000000	    -60.03661332	      2.80732552	    -70.64150323	     88.23323879	     89.29102382	      0.00000000	      0.00000000
      9.86500000	    -37.33773513	    -14.72181037	    -87.93823330	      0.43113452	      1.01235279	     -0.47957723	    -29.97417545	     29.98458435	    -39.96190604	      8.56940934	      0.14956441	    -23.81515272	      0.00000000	      0.00000000	     11.50005331	     -9.67746073	     39.95703417	     44.54287597	      0.77741984	    -22.11140420	      0.00000000	      0.00000000	     89.98807271	     89.98459171	     89.98807668	     35.63066888	     41.09482881	     88.38353838	     19.21234140	      2.46925935	      0.00000000	      0.00000000	    -60.36847854	      2.75400679	    -70.21564126	     88.47878278	     89.29909529	      0.00000000	      0.00000000
      9.87000000	    -37.58721087	    -14.85204738	    -87.93895680	      0.43192708	      1.01384225	     -0.47929187	    -29.97355861	     29.98532036	    -39.96236024	      8.94124832	      0.15605422	    -24.66500289	      0.00000000	      0.00000000	     11.20004015	    -10.07679590	     39.95705099	     44.11397665	      0.76993414	    -22.40118803	      0.00000000	      0.00000000	     89.98799355	     89.98506451	     89.98799758	     35.79353793	     40.86992981	     88.50827720	     19.37142992	      2.50274938	      0.00000000	      0.00000000	    -60.60627549	      2.86969531	    -69.97032811	     88.80777551	     89.30114514	      0.00000000	      0.00000000
      9.87500000	    -37.83502729	    -14.98341940	    -87.93722565	      0.43275235	      1.01531994	     -0.47904378	    -29.97298283	     29.98598137	    -39.96282323	      9.29787745	      0.16227858	    -25.51256779	      0.00000000	      0.00000000	     10.89569558	    -10.47424221	     39.95708750	     43.68232076	      0.76240032	    -22.61643656	      0.00000000	      0.00000000	     89.98792345	     89.98549987	     89.98792757	     35.96067938	     40.65432494	     88.62477385	     19.51706750	      2.53689163	      0.00000000	      0.00000000	    -60.85746524	      2.96432141	    -69.73407972	     89.13226160	     89.29856163	      0.00000000	      0.00000000
      9.88000000	    -38.08309179	    -15.10297906	    -87.94414816	      0.43357474	      1.01675486	     -0.47874385	    -29.97239131	     29.98659833	    -39.96331061	      9.64937416	      0.16841335	    -26.28053529	      0.00000000	      0.00000000	     10.57873139	    -10.87824857	     39.95713912	     43.22312142	      0.75438578	    -22.77229190	      0.00000000	      0.00000000	     89.98786036	     89.98592491	     89.98786451	     36.11789892	     40.45965926	     88.70341446	     19.65644411	      2.57195849	      0.00000000	      0.00000000	    -61.11519753	      3.05627780	    -69.47805199	     89.45136715	     89.30221663	      0.00000000	      0.00000000
      9.88500000	    -38.33169240	    -15.23368996	    -87.94335696	      0.43440846	      1.01808021	     -0.47848459	    -29.97169594	     29.98715645	    -39.96377734	     10.01499358	      0.17479461	    -27.07121885	      0.00000000	      0.00000000	     10.27118667	    -11.27299261	     39.95715888	     42.80528489	      0.74709316	    -22.91788274	      0.00000000	      0.00000000	     89.98778507	     89.98632537	     89.98778930	     36.28190152	     40.24832294	     88.79098719	     19.79474630	      2.60973351	      0.00000000	      0.00000000	    -61.38330776	      3.15517857	    -69.25418750	     89.80142834	     89.29925594	      0.00000000	      0.00000000
      9.89000000	    -38.57191765	    -15.34404489	    -87.95031698	      0.43531390	      1.01944460	     -0.47823553	    -29.97109287	     29.98769632	    -39.96429602	     10.33156349	      0.18031980	    -27.84036984	      0.00000000	      0.00000000	      9.96251679	    -11.65937101	     39.95720092	     42.35735807	      0.73927536	    -23.04116510	      0.00000000	      0.00000000	     89.98771469	     89.98670671	     89.98771898	     36.44026355	     40.08254251	     88.86928834	     19.90318490	      2.64865189	      0.00000000	      0.00000000	    -61.66364188	      3.24466398	    -69.05853595	     90.15285619	     89.29526860	      0.00000000	      0.00000000
      9.89500000	    -38.80890206	    -15.46129920	    -87.95075841	      0.43625899	      1.02072695	     -0.47802275	    -29.97038672	     29.98817413	    -39.96480094	     10.65578542	      0.18597854	    -28.57963333	      0.00000000	      0.00000000	      9.67531610	    -12.03053957	     39.95720162	     41.95837692	      0.73231183	    -23.19503450	      0.00000000	      0.00000000	     89.98764207	     89.98706355	     89.98764641	     36.59740410	     39.90297259	     88.93453971	     20.03574912	      2.68695628	      0.00000000	      0.00000000	    -61.93923114	      3.32509413	    -68.81086690	     90.47312870	     89.29863798	      0.00000000	      0.00000000
      9.90000000	    -39.03609601	    -15.56199507	    -87.96257163	      0.43725665	      1.02203441	     -0.47774174	    -29.96957925	     29.98861828	    -39.96532913	     10.94930816	      0.19110148	    -29.26671850	      0.00000000	      0.00000000	      9.37752286	    -12.39507508	     39.95714510	     41.53911182	      0.72499427	    -23.27915925	      0.00000000	      0.00000000	     89.98755190	     89.98741563	     89.98755637	     36.75780100	     39.73392511	     88.98852322	     20.17381515	      2.71722454	      0.00000000	      0.00000000	    -62.19252517	      3.41921891	    -68.62589725	     90.82180610	     89.29915911	      0.00000000	      0.00000000
      9.90500000	    -39.28690491	    -15.66493636	    -87.98761945	      0.43817614	      1.02316425	     -0.47742590	    -29.96871581	     29.98901494	    -39.96587037	     11.33850845	      0.19789430	    -29.63279617	      0.00000000	      0.00000000	      9.11971037	    -12.76225579	     39.95708408	     41.23732090	      0.71972702	    -23.31576944	      0.00000000	      0.00000000	     89.98747556	     89.98773252	     89.98748017	     36.90818174	     39.62319242	     89.00279293	     20.19174323	      2.72815939	      0.00000000	      0.00000000	    -62.34634674	      3.60775372	    -68.57233790	     91.17030038	     89.29109000	      0.00000000	      0.00000000
      9.91000000	    -39.48708144	    -15.75438759	    -87.98595559	      0.43944361	      1.02447053	     -0.47723860	    -29.96823224	     29.98940112	    -39.96635077	     11.52651663	      0.20117567	    -30.50386043	      0.00000000	      0.00000000	      8.77845243	    -13.11526297	     39.95713822	     40.68609337	      0.71010629	    -23.37519228	      0.00000000	      0.00000000	     89.98741046	     89.98801908	     89.98741503	     37.09424139	     39.42186028	     89.07164501	     20.44879266	      2.77842902	      0.00000000	      0.00000000	    -62.71209979	      3.62280714	    -68.32281320	     91.53057376	     89.29625519	      0.00000000	      0.00000000
      9.91500000	    -39.71042672	    -15.84670428	    -87.99952669	      0.44057519	      1.02559428	     -0.47699870	    -29.96740362	     29.98975620	    -39.96695258	     11.84747313	      0.20677741	    -30.90152901	      0.00000000	      0.00000000	      8.53382371	    -13.43640401	     39.95706609	     40.38232680	      0.70480456	    -23.42894881	      0.00000000	      0.00000000	     89.98732588	     89.98831084	     89.98733049	     37.23356058	     39.30373011	     89.09542628	     20.52214949	      2.79836253	      0.00000000	      0.00000000	    -62.85449840	      3.80678190	    -68.27549726	     91.88866452	     89.28594741	      0.00000000	      0.00000000
      9.92000000	    -39.92677292	    -15.93375176	    -88.00884352	      0.44181450	      1.02674673	     -0.47679300	    -29.96671007	     29.99007760	    -39.96749522	     12.11684410	      0.21147882	    -31.44066439	      0.00000000	      0.00000000	      8.24568819	    -13.77322259	     39.95707134	     39.95780297	      0.69739522	    -23.49605644	      0.00000000	      0.00000000	     89.98725328	     89.98858984	     89.98725808	     37.39737056	     39.13962203	     89.12252391	     20.69764100	      2.83354477	      0.00000000	      0.00000000	    -63.08075197	      3.93993794	    -68.14998441	     92.23737470	     89.29694744	      0.00000000	      0.00000000
      9.92500000	    -40.13450203	    -16.01545105	    -88.00821752	      0.44306726	      1.02792084	     -0.47660400	    -29.96623234	     29.99039250	    -39.96794463	     12.30513936	      0.21476520	    -32.31069883	      0.00000000	      0.00000000	      7.99095738	    -14.08268142	     39.95705984	     39.55580264	      0.69037899	    -23.70480791	      0.00000000	      0.00000000	     89.98721220	     89.98883264	     89.98721690	     37.61805305	     38.88368666	     89.19859446	     21.07308921	      2.89945533	      0.00000000	      0.00000000	    -63.37164511	      3.96329844	    -67.96857902	     92.50622189	     89.29869206	      0.00000000	      0.00000000
      9.93000000	    -40.35824793	    -16.09679637	    -88.02118504	      0.44418166	      1.02891449	     -0.47633409	    -29.96545256	     29.99068574	    -39.96846934	     12.58473438	      0.21964505	    -32.80856243	      0.00000000	      0.00000000	      7.76155605	    -14.38769135	     39.95707710	     39.24144817	      0.68489247	    -23.84536367	      0.00000000	      0.00000000	     89.98714478	     89.98909273	     89.98714952	     37.78006439	     38.70733643	     89.22494281	     21.26907119	      2.94191836	      0.00000000	      0.00000000	    -63.57963216	      4.08214993	    -67.89095961	     92.83658189	     89.29504573	      0.00000000	      0.00000000
